<?xml version="1.0" encoding="UTF-8"?>
<svg id="Camada_1" xmlns="http://www.w3.org/2000/svg" version="1.1" viewBox="0 0 80 80">
  <!-- Generator: Adobe Illustrator 29.5.1, SVG Export Plug-In . SVG Version: 2.1.0 Build 141)  -->
  <defs>
    <style>
      .st0 {
        fill: #fff;
      }
    </style>
  </defs>
  <path class="st0" d="M79.6,38.4c.2,6.4-1.1,12.4-3.5,17.8-.2.4-.4.9-.6,1.3l-2.7-.9c.1-.2.2-.4.3-.7.4-.9.7-1.8.9-2.9-8.9,5.3-20,1.2-28.3-3.4,3.5-5.4,8.3-1,13,0,12.7,2.9,18.6-.9,18.3-11.1,0-1.9-.3-4-.8-6.3,0-.1,0-.3-.1-.4-.9-3.4-4.3-8-.5-10.1,1.4,3.2,2.5,6.4,3.1,9.5.5,2.4.8,4.9.9,7.2Z"/>
  <path class="st0" d="M72.8,56.6l2.7.9c-8.9,18-30.9,28.3-53.4,18.5,6.6-4.3,8.9-9.7,7.7-17.6,9.1,5,27.2,18.4,35.9,7.7-16.5.2-33.3-9.7-43.6-21.8,1.3-1.4,2.7-2.2,4.6-1.6,2.5.7,11,8.6,14.6,10.7,7.5,4.4,26.1,12.8,31.6,3.3Z"/>
  <path class="st0" d="M58.1,36.7c-7,.5-14.2-5.2-17.9-8.8-13.3-9.7-28.8-10.6-33.1-3.5l-2.3-1.1c1.9-3.9,4.4-7.5,7.5-10.6l1.9,1.5c-.2.2-.4.4-.5.6,9.9-.3,34.4,6.4,44.4,22Z"/>
  <path class="st0" d="M57.2,5.2c-6.3,3.6-8.2,9.5-6.9,16.5-9.5-5.2-25.9-17-35.6-8-.2.2-.4.4-.5.5l-1.9-1.5C19.3,5.4,29,.8,39.6.8s11.7,1.4,17.6,4.4Z"/>
  <path class="st0" d="M34.9,31.7c-8.7,6.1-17.6-8.5-29.5,1.1-7.2,8,4.8,25.5-.9,24.9-2.6-5.7-3.8-11.4-3.8-16.9s1.3-11.2,3.5-16.2c.2-.4.4-.8.6-1.3l2.3,1.1c-.1.2-.2.4-.3.6-.4.8-.6,1.7-.7,2.7,10.9-4.4,21.1-.7,28.9,3.9Z"/>
</svg>